<svg width="119" height="70" viewBox="0 0 119 70" fill="none" xmlns="http://www.w3.org/2000/svg">
<g id="Group 44">
<circle id="Ellipse 3" cx="2.5" cy="2.5" r="2.5" transform="matrix(1 0 0 -1 36.8901 5)" fill="white"/>
<circle id="Ellipse 8" cx="2.5" cy="2.5" r="2.5" transform="matrix(1 0 0 -1 17.7073 5)" fill="white"/>
<circle id="Ellipse 9" cx="2.5" cy="2.5" r="2.5" transform="matrix(1 0 0 -1 0 5)" fill="white"/>
<circle id="Ellipse 4" cx="2.5" cy="2.5" r="2.5" transform="matrix(1 0 0 -1 56.0732 5)" fill="white"/>
<circle id="Ellipse 5" cx="2.5" cy="2.5" r="2.5" transform="matrix(1 0 0 -1 75.2561 5)" fill="white"/>
<circle id="Ellipse 6" cx="2.5" cy="2.5" r="2.5" transform="matrix(1 0 0 -1 94.439 5)" fill="white"/>
<circle id="Ellipse 7" cx="2.5" cy="2.5" r="2.5" transform="matrix(1 0 0 -1 113.622 5)" fill="white"/>
<circle id="Ellipse 10" cx="2.5" cy="2.5" r="2.5" transform="matrix(1 0 0 -1 36.8901 21.2317)" fill="white"/>
<circle id="Ellipse 11" cx="2.5" cy="2.5" r="2.5" transform="matrix(1 0 0 -1 17.7073 21.2317)" fill="white"/>
<circle id="Ellipse 12" cx="2.5" cy="2.5" r="2.5" transform="matrix(1 0 0 -1 0 21.2317)" fill="white"/>
<circle id="Ellipse 13" cx="2.5" cy="2.5" r="2.5" transform="matrix(1 0 0 -1 56.0732 21.2317)" fill="white"/>
<circle id="Ellipse 14" cx="2.5" cy="2.5" r="2.5" transform="matrix(1 0 0 -1 75.2561 21.2317)" fill="white"/>
<circle id="Ellipse 15" cx="2.5" cy="2.5" r="2.5" transform="matrix(1 0 0 -1 94.439 21.2317)" fill="white"/>
<circle id="Ellipse 16" cx="2.5" cy="2.5" r="2.5" transform="matrix(1 0 0 -1 113.622 21.2317)" fill="white"/>
<circle id="Ellipse 17" cx="2.5" cy="2.5" r="2.5" transform="matrix(1 0 0 -1 36.8901 37.4634)" fill="white"/>
<circle id="Ellipse 18" cx="2.5" cy="2.5" r="2.5" transform="matrix(1 0 0 -1 17.7073 37.4634)" fill="white"/>
<circle id="Ellipse 19" cx="2.5" cy="2.5" r="2.5" transform="matrix(1 0 0 -1 0 37.4634)" fill="white"/>
<circle id="Ellipse 20" cx="2.5" cy="2.5" r="2.5" transform="matrix(1 0 0 -1 56.0732 37.4634)" fill="white"/>
<circle id="Ellipse 21" cx="2.5" cy="2.5" r="2.5" transform="matrix(1 0 0 -1 75.2561 37.4634)" fill="white"/>
<circle id="Ellipse 22" cx="2.5" cy="2.5" r="2.5" transform="matrix(1 0 0 -1 94.439 37.4634)" fill="white"/>
<circle id="Ellipse 23" cx="2.5" cy="2.5" r="2.5" transform="matrix(1 0 0 -1 113.622 37.4634)" fill="white"/>
<circle id="Ellipse 24" cx="2.5" cy="2.5" r="2.5" transform="matrix(1 0 0 -1 36.8901 53.6951)" fill="white"/>
<circle id="Ellipse 25" cx="2.5" cy="2.5" r="2.5" transform="matrix(1 0 0 -1 17.7073 53.6951)" fill="white"/>
<circle id="Ellipse 26" cx="2.5" cy="2.5" r="2.5" transform="matrix(1 0 0 -1 0 53.6951)" fill="white"/>
<circle id="Ellipse 27" cx="2.5" cy="2.5" r="2.5" transform="matrix(1 0 0 -1 56.0732 53.6951)" fill="white"/>
<circle id="Ellipse 28" cx="2.5" cy="2.5" r="2.5" transform="matrix(1 0 0 -1 75.2561 53.6951)" fill="white"/>
<circle id="Ellipse 29" cx="2.5" cy="2.5" r="2.5" transform="matrix(1 0 0 -1 94.439 53.6951)" fill="white"/>
<circle id="Ellipse 30" cx="2.5" cy="2.5" r="2.5" transform="matrix(1 0 0 -1 113.622 53.6951)" fill="white"/>
<circle id="Ellipse 31" cx="2.5" cy="2.5" r="2.5" transform="matrix(1 0 0 -1 36.8901 69.9268)" fill="white"/>
<circle id="Ellipse 32" cx="2.5" cy="2.5" r="2.5" transform="matrix(1 0 0 -1 17.7073 69.9268)" fill="white"/>
<circle id="Ellipse 33" cx="2.5" cy="2.5" r="2.5" transform="matrix(1 0 0 -1 0 69.9268)" fill="white"/>
<circle id="Ellipse 34" cx="2.5" cy="2.5" r="2.5" transform="matrix(1 0 0 -1 56.0732 69.9268)" fill="white"/>
<circle id="Ellipse 35" cx="2.5" cy="2.5" r="2.5" transform="matrix(1 0 0 -1 75.2561 69.9268)" fill="white"/>
<circle id="Ellipse 36" cx="2.5" cy="2.5" r="2.5" transform="matrix(1 0 0 -1 94.439 69.9268)" fill="white"/>
<circle id="Ellipse 37" cx="2.5" cy="2.5" r="2.5" transform="matrix(1 0 0 -1 113.622 69.9268)" fill="white"/>
</g>
</svg>
